#!OML:ASF X:\für Bonn\!DataBase\2005_08_12_Daniel\c3d\Daniel.ASF
:FULLY-SPECIFIED
:DEGREES
124
root 0.513912 18.0222 5.98599 -532.195 19.5338 -524.77
lowerback 7.25759 -6.06364 6.58339
upperback 1.44193 -7.32511 2.36062
thorax -3.06343 -3.61764 -0.460909
lowerneck -4.16329 14.6243 0.81543
upperneck -2.37097 20.2042 -14.3808
head 1.68571 10.1697 -4.02238
rclavicle 2.0276e-014 -2.06736e-014
rhumerus -74.0848 10.4605 -89.6917
rradius 68.3276
rwrist -2.53123
rhand -28.0428 33.2607
rfingers 7.12502
rthumb -1.42724 3.28574
lclavicle 2.0276e-014 -2.06736e-014
lhumerus -55.7173 -10.5679 93.2346
lradius 122.492
lwrist 12.2231
lhand -9.27965 -15.6517
lfingers 7.12502
lthumb 16.6772 13.6519
rfemur -26.2463 17.0064 20.9492
rtibia 30.1686
rfoot -1.54872 -8.42465
rtoes -12.2818
lfemur 8.34486 -0.39736 -21.5535
ltibia 44.6218
lfoot 4.51376 2.98309
ltoes -3.43665
125
root 0.626445 18.0281 5.69427 -532.617 19.0977 -524.941
lowerback 7.45414 -6.03471 6.68306
upperback 1.50426 -7.26011 2.31001
thorax -3.12247 -3.58371 -0.556667
lowerneck -4.33493 14.535 0.767033
upperneck -2.24465 20.1075 -14.3194
head 1.7363 10.1118 -3.98225
rclavicle 1.2424e-014 -2.54444e-014
rhumerus -74.0037 10.1742 -89.3496
rradius 68.0294
rwrist -2.68966
rhand -27.9667 33.5794
rfingers 7.12502
rthumb -1.35374 3.60398
lclavicle 1.2424e-014 -2.54444e-014
lhumerus -56.405 -11.1245 93.5631
lradius 122.175
lwrist 11.7929
lhand -9.30883 -15.8706
lfingers 7.12502
lthumb 16.6491 13.4353
rfemur -25.8225 18.021 20.5943
rtibia 28.3289
rfoot -1.30849 -8.83189
rtoes -11.4655
lfemur 8.37229 -0.263813 -21.5006
ltibia 46.5444
lfoot 4.19719 3.18322
ltoes -2.94874
126
root 0.739642 18.0098 5.4077 -533.148 18.7009 -525.074
lowerback 7.78543 -5.99062 6.81113
upperback 1.60841 -7.15924 2.23864
thorax -3.21596 -3.53058 -0.682311
lowerneck -4.45719 14.4359 0.774718
upperneck -2.17676 19.9845 -14.267
head 1.76438 10.0447 -3.96213
rclavicle -1.16289e-014 -3.18055e-015
rhumerus -73.6517 9.83098 -89.011
rradius 67.5636
rwrist -2.92208
rhand -27.8376 33.8814
rfingers 7.12502
rthumb -1.22903 3.90522
lclavicle -1.16289e-014 -3.18055e-015
lhumerus -57.0573 -11.5727 93.9073
lradius 121.688
lwrist 11.4461
lhand -9.37311 -15.95
lfingers 7.12502
lthumb 16.5873 13.3611
rfemur -25.3549 18.8251 20.411
rtibia 26.9917
rfoot -0.993596 -9.21901
rtoes -11.8599
lfemur 8.38303 -0.0186485 -21.3661
ltibia 48.762
lfoot 3.65108 3.24847
ltoes -2.38471
127
root 0.854503 17.964 5.12806 -533.76 18.3212 -525.174
lowerback 8.22358 -5.93837 6.95257
upperback 1.75006 -7.03324 2.1679
thorax -3.3284 -3.46277 -0.810257
lowerneck -4.51113 14.3136 0.833507
upperneck -2.21949 19.8201 -14.3029
head 1.75759 9.9657 -3.99169
rclavicle 1.59922e-013 -2.38542e-014
rhumerus -73.0664 9.50749 -88.6932
rradius 66.967
rwrist -3.2305
rhand -27.6455 33.9745
rfingers 7.12502
rthumb -1.0435 3.99728
lclavicle 1.59922e-013 -2.38542e-014
lhumerus -57.6035 -11.889 94.2519
lradius 121.035
lwrist 11.2924
lhand -9.406 -15.8027
lfingers 7.12502
lthumb 16.5556 13.511
rfemur -24.8053 19.4026 20.3838
rtibia 26.0941
rfoot -0.551029 -9.54225
rtoes -13.3467
lfemur 8.32319 0.261602 -21.1763
ltibia 51.2919
lfoot 2.96472 3.22365
ltoes -2.14467
128
root 0.968958 17.9011 4.85194 -534.422 17.9434 -525.239
lowerback 8.7454 -5.89193 7.13416
upperback 1.90375 -6.89946 2.09454
thorax -3.47771 -3.39038 -0.957471
lowerneck -4.51195 14.2007 0.928725
upperneck -2.33251 19.6608 -14.3876
head 1.72866 9.89483 -4.04963
rclavicle 2.22639e-014 -2.06736e-014
rhumerus -72.4493 9.23994 -88.3688
rradius 66.4101
rwrist -3.46358
rhand -27.4591 33.9513
rfingers 7.12502
rthumb -0.863508 3.97333
lclavicle 2.22639e-014 -2.06736e-014
lhumerus -58.0973 -12.0735 94.5841
lradius 120.179
lwrist 11.2897
lhand -9.52222 -15.5479
lfingers 7.12502
lthumb 16.4437 13.7752
rfemur -24.188 19.7492 20.4928
rtibia 25.5408
rfoot 0.0974232 -9.78008
rtoes -14.8936
lfemur 8.16778 0.509153 -20.9553
ltibia 54.0922
lfoot 2.28098 3.20266
ltoes -2.12885
129
root 1.08304 17.8267 4.5789 -535.118 17.5408 -525.235
lowerback 9.34368 -5.84918 7.36199
upperback 2.07505 -6.75043 2.05226
thorax -3.64957 -3.30807 -1.09557
lowerneck -4.46271 14.0608 0.952573
upperneck -2.54891 19.456 -14.4718
head 1.64458 9.81027 -4.10856
rclavicle 3.34952e-014 -2.22639e-014
rhumerus -71.9917 9.12738 -88.0325
rradius 66.112
rwrist -3.76067
rhand -27.218 33.6901
rfingers 7.12502
rthumb -0.630648 3.71132
lclavicle 3.34952e-014 -2.22639e-014
lhumerus -58.6293 -12.0678 94.9874
lradius 119.231
lwrist 11.3753
lhand -9.61215 -15.1761
lfingers 7.12502
lthumb 16.3571 14.1542
rfemur -23.5317 19.8352 20.7806
rtibia 25.3265
rfoot 0.891041 -9.76065
rtoes -15.9218
lfemur 7.88877 0.706755 -20.6381
ltibia 57.104
lfoot 1.72327 3.14567
ltoes -2.27266
